
>>
>> "C:\Program Files (x86)\ffmpegyag\bin\ffmpeg.exe" -ss 00:00:28.480 -i "C:\Users\Public\Documents\Unity Projects\test\Assets\Resources\balloons\气球_人2.webm" -strict experimental -f webm -map_chapters -1 -map 0:0 -map 0:1 -sn -b:a:0 192k -c:v:0 copy -ss 00:00:15.000 -t 00:00:04.759 -y "C:\Users\Public\Documents\Unity Projects\test\Assets\Resources\balloons\trimed_ren.webm"
>>

ffmpeg version 2.5.2 Copyright (c) 2000-2014 the FFmpeg developers
  built on Dec 30 2014 17:18:09 with gcc 4.9.2 (GCC)
  configuration: --disable-static --enable-shared --enable-gpl --enable-version3 --disable-w32threads --enable-avisynth --enable-bzlib --enable-fontconfig --enable-frei0r --enable-gnutls --enable-iconv --enable-libass --enable-libbluray --enable-libbs2b --enable-libcaca --enable-libfreetype --enable-libgme --enable-libgsm --enable-libilbc --enable-libmodplug --enable-libmp3lame --enable-libopencore-amrnb --enable-libopencore-amrwb --enable-libopenjpeg --enable-libopus --enable-librtmp --enable-libschroedinger --enable-libsoxr --enable-libspeex --enable-libtheora --enable-libtwolame --enable-libvidstab --enable-libvo-aacenc --enable-libvo-amrwbenc --enable-libvorbis --enable-libvpx --enable-libwavpack --enable-libwebp --enable-libx264 --enable-libx265 --enable-libxavs --enable-libxvid --enable-lzma --enable-decklink --enable-zlib
  libavutil      54. 15.100 / 54. 15.100
  libavcodec     56. 13.100 / 56. 13.100
  libavformat    56. 15.102 / 56. 15.102
  libavdevice    56.  3.100 / 56.  3.100
  libavfilter     5.  2.103 /  5.  2.103
  libswscale      3.  1.101 /  3.  1.101
  libswresample   1.  1.100 /  1.  1.100
  libpostproc    53.  3.100 / 53.  3.100
Input #0, matroska,webm, from 'C:\Users\Public\Documents\Unity Projects\test\Assets\Resources\balloons\气球_人2.webm':
  Metadata:
    encoder         : Lavf56.15.102
  Duration: 00:00:48.24, start: 0.000000, bitrate: 671 kb/s
    Stream #0:0(eng): Video: vp8, yuv420p, 1920x1080, SAR 1:1 DAR 16:9, 50 fps, 50 tbr, 1k tbn, 1k tbc (default)
    Metadata:
      alpha_mode      : 1
    Stream #0:1(eng): Audio: vorbis, 48000 Hz, stereo, fltp (default)
Output #0, webm, to 'C:\Users\Public\Documents\Unity Projects\test\Assets\Resources\balloons\trimed_ren.webm':
  Metadata:
    encoder         : Lavf56.15.102
    Stream #0:0(eng): Video: vp8, yuv420p, 1920x1080 [SAR 1:1 DAR 16:9], q=2-31, 50 fps, 1k tbn, 1k tbc (default)
    Metadata:
      alpha_mode      : 1
    Stream #0:1(eng): Audio: vorbis (libvorbis), 48000 Hz, stereo, fltp, 192 kb/s (default)
    Metadata:
      encoder         : Lavc56.13.100 libvorbis
Stream mapping:
  Stream #0:0 -> #0:0 (copy)
  Stream #0:1 -> #0:1 (vorbis (native) -> vorbis (libvorbis))
Press [q] to stop, [?] for help
video:2873kB audio:21kB subtitle:0kB other streams:0kB global headers:4kB muxing overhead: 0.360235%
